# xmcd CD database file
# Copyright (C) 1993-1998 Ti Kan
#
# Track frame offsets:
#	150
#	13240
#	25205
#	44782
#	58284
#	69461
#	87126
#	109028
#	122530
#	137570
#	149047
#	159849
#	177064
#	194879
#	214494
#	232309
#	247424
#	258376
#	271916
#	285943
#	303983
#
# Disc length: 4309 seconds
#
# Revision: 1
# Processed by: cddbd v1.4b41PL1 Copyright (c) Steve Scherf et al.
# Submitted via: CDValet v3.31 - Copyright (c) 1997 Greg Leichner
#
DISCID=4910d315
DTITLE=Various Artist - What I DIdn't Do
DYEAR=1900
DGENRE=
TTITLE0=Pocket Of A Clown/Dwight Yoakom
TTITLE1=Right Or Wrong/Wanda Jackson
TTITLE2=Shameless/Garth Brooks
TTITLE3=Slow Hand/Conway Twitty
TTITLE4=Sold/Michael J. Montgomery
TTITLE5=Somebody Needin Somebody/Conway Twitty
TTITLE6=Strawberry Wine/Deana Carter
TTITLE7=Teddy Bear/Tanya Tucker
TTITLE8=Texas Tornado/Tracy Lawrence
TTITLE9=The Battle Of New Orleans/Johnny Horton
TTITLE10=The Old Lamplighter/The Browns
TTITLE11=The Woman Before Me/Trisha Yearwood
TTITLE12=There Goes/Alan Jackson
TTITLE13=This Woman This Man/Clay Walker
TTITLE14=Till I can't Take It Anymore/Billy Joe Royal
TTITLE15=To Good To Be True/Michael PetersonTo Good To Be True/
TTITLE15=Michael Peters
TTITLE16=Walk on by/
TTITLE17=We'll Sing in the Sunshine/Gale Garnett
TTITLE18=What I Didn't Do/Steve Warner
TTITLE19=What Kind Of Love/Rodney Crowell
TTITLE20=Whenever You Come Around/Vince Gill
EXTD=
EXTT0=
EXTT1=
EXTT2=
EXTT3=
EXTT4=
EXTT5=
EXTT6=
EXTT7=
EXTT8=
EXTT9=
EXTT10=
EXTT11=
EXTT12=
EXTT13=
EXTT14=
EXTT15=
EXTT16=
EXTT17=
EXTT18=
EXTT19=
EXTT20=
PLAYORDER=
